<?xml version="1.0" encoding="utf-8"?>
<!-- Generator: Adobe Illustrator 19.2.0, SVG Export Plug-In . SVG Version: 6.00 Build 0)  -->
<svg version="1.1" id="Layer_1" xmlns="http://www.w3.org/2000/svg" xmlns:xlink="http://www.w3.org/1999/xlink" x="0px" y="0px"
	 width="168px" height="66px" viewBox="0 0 168 66" style="enable-background:new 0 0 168 66;" xml:space="preserve">
<style type="text/css">
	.st0{fill:#F2F6F9;}
	.st1{fill:#3BABE1;}
	.st2{fill:#3BABE1;stroke:#3BABE1;stroke-width:0.2;}
	.st3{fill:#FFFFFF;}
</style>
<title>Artboard 2</title>
<desc>Created with Sketch.</desc>
<g id="Artboard-2">
	<g id="Group-44" transform="translate(15.000000, 15.000000)">
		<circle id="Oval-2" class="st0" cx="18" cy="18" r="18"/>
		<g id="Group-36" transform="translate(5.000000, 8.000000)">
		</g>
		<g id="Group-10" transform="translate(6.000000, 9.000000)">
			<polygon id="Path-9" class="st1" points="14.2,4.4 2.2,11.1 3.6,14.2 16.9,12 			"/>
			<g id="Group-35">
				<path id="Shape" class="st1" d="M17.1,12.5L13.7,13l0.2,0.4c0.2,0.5,0.3,1,0.2,1.5c-0.1,1.2-0.9,2.2-2,2.6
					c-1.6,0.6-3.5-0.1-4.1-1.8l-0.8-1.9l-3.7,0.5c0,0,0,0.1,0,0.1C3.5,14.7,3.3,14.9,3,15l-0.5,0.2c-0.5,0.2-1,0-1.2-0.5l-1.3-3.2
					c-0.2-0.5,0-1,0.5-1.2c0,0,0,0,0,0l0.5-0.2c0.2-0.1,0.4-0.1,0.6,0L12.9,2l-0.1-0.4c-0.2-0.5,0-1.1,0.6-1.3L14,0.1
					c0.5-0.2,1.1,0,1.3,0.6l1.6,4c0.4,0.1,0.7,0.2,1,0.5c0.3,0.2,0.6,0.6,0.7,1c0.2,0.4,0.2,0.8,0.1,1.2c-0.1,0.3-0.2,0.7-0.4,1
					l1.5,3.7c0.2,0.5,0,1.1-0.6,1.3l-0.6,0.3c-0.5,0.2-1.1,0-1.3-0.6L17.1,12.5L17.1,12.5z M13,13.1l-5,0.7l0.7,1.7
					c0.5,1.3,2,1.9,3.2,1.4c0.8-0.3,1.4-1.1,1.5-2c0-0.4,0-0.8-0.2-1.2L13,13.1z M3.5,13.7l13.3-1.8l-2.8-7l-0.5-1.3l0.6-0.4
					l0.6,1.5l3.2,8c0.1,0.2,0.2,0.2,0.4,0.2l0.6-0.3c0.2-0.1,0.2-0.2,0.2-0.4L14.6,0.9c-0.1-0.2-0.2-0.2-0.4-0.2L13.6,1
					c-0.2,0.1-0.2,0.2-0.2,0.4l0.7,1.7c0,0.1,0.1,0.8,0.1,2.2l-0.8-1.9l-0.3-0.7L2.2,10.5c0,0,0,0,0,0.1L3.5,13.7z M1.4,10.8
					C1.2,10.8,1,10.9,0.8,11c-0.1,0-0.2,0.2-0.1,0.3l0,0L2,14.4c0,0.1,0.2,0.2,0.3,0.1c0.2-0.1,0.4-0.1,0.5-0.2
					c0.1,0,0.1-0.2,0.1-0.3l-1.3-3.2C1.6,10.8,1.5,10.7,1.4,10.8z M20,7.7c-0.2,0-0.3-0.2-0.3-0.4C19.7,7.2,19.8,7,20,7l2.8,0.3
					c0.2,0,0.3,0.2,0.3,0.4c0,0.2-0.2,0.3-0.4,0.3L20,7.7z M18.8,4.2c-0.1,0.1-0.3,0.2-0.5,0c-0.1-0.1-0.2-0.3,0-0.5l1.9-2.2
					c0.1-0.1,0.3-0.2,0.5,0c0.1,0.1,0.2,0.3,0,0.5L18.8,4.2z M19.9,5.8c-0.2,0.1-0.4,0-0.5-0.2c-0.1-0.2,0-0.4,0.2-0.5l2.6-1
					c0.2-0.1,0.4,0,0.5,0.2c0.1,0.2,0,0.4-0.2,0.5L19.9,5.8z M17.2,5.5L18,7.4c0-0.1,0-0.1,0-0.2c0-0.3,0-0.6-0.1-0.8
					c-0.1-0.3-0.3-0.5-0.5-0.7C17.3,5.6,17.3,5.5,17.2,5.5z"/>
			</g>
		</g>
	</g>
	<g id="Group-45" transform="translate(66.000000, 15.000000)">
		<circle id="Oval-2-Copy-5" class="st0" cx="18" cy="18" r="18"/>
		<g id="Group-38-Copy" transform="translate(10.000000, 10.000000)">
			<path id="Oval-3" class="st1" d="M7.2,3.2c-1-0.9-1.6-1.4-1.9-1.5C4.9,1.6,4.5,1.8,4.4,2.2C4.2,2.6,4.4,3,4.8,3.1
				C5.1,3.2,5.9,3.2,7.2,3.2z"/>
			<path id="Oval-3-Copy-2" class="st1" d="M9.4,3.2c1-0.9,1.6-1.4,1.9-1.5c0.4-0.1,0.8,0.1,0.9,0.5c0.1,0.4-0.1,0.8-0.5,0.9
				C11.5,3.2,10.7,3.2,9.4,3.2z"/>
			<g id="Group-37">
				<rect id="Rectangle-25" x="7" y="3" class="st1" width="3" height="13"/>
				<path id="Shape_1_" class="st2" d="M16.4,3h-3.2c0.2-0.2,0.3-0.4,0.4-0.6c0.2-0.4,0.2-0.9,0-1.3C13.3,0.4,12.7,0,12,0
					c-0.2,0-0.5,0-0.7,0.1c-0.7,0.3-2.4,2-3,2.7C7.7,2.2,6,0.4,5.3,0.1C5.1,0,4.9,0,4.7,0C4,0,3.4,0.4,3.1,1.1C2.8,1.7,3,2.5,3.5,3
					H0.3C0.1,3,0,3.1,0,3.3v4.3c0,0.2,0.1,0.3,0.3,0.3h0.9v8c0,0.2,0.1,0.3,0.3,0.3h5.4h2.9h5.4c0.2,0,0.3-0.1,0.3-0.3v-8h0.9
					c0.2,0,0.3-0.1,0.3-0.3V3.3C16.7,3.1,16.5,3,16.4,3z M6.6,15.5H1.7V7.8h4.9V15.5z M6.6,7.2H1.4H0.6V3.5h5.7c0.1,0,0.2,0,0.3,0
					L6.6,7.2L6.6,7.2z M6.3,3C6.2,3,6.1,3,6,3c-1.3,0-1.7-0.1-1.8-0.2C3.6,2.5,3.4,1.9,3.6,1.3c0.2-0.4,0.6-0.7,1.1-0.7
					c0.2,0,0.3,0,0.4,0.1C5.5,0.8,6.8,2,7.7,3H6.9L6.3,3L6.3,3z M9.5,15.5H7.1V7.8h2.4L9.5,15.5L9.5,15.5z M9.5,7.2H7.1V3.5
					c0.3,0,0.7,0,0.9,0h0.6c0,0,0,0,0,0c0.2,0,0.5,0,0.8,0L9.5,7.2L9.5,7.2z M9,3c0.9-0.9,2.1-2.1,2.6-2.3c0.1-0.1,0.3-0.1,0.4-0.1
					c0.5,0,0.9,0.3,1.1,0.7c0.1,0.3,0.1,0.6,0,0.9c-0.1,0.3-0.3,0.5-0.6,0.6c-0.1,0.1-0.5,0.1-1.8,0.2c-0.1,0-0.2,0-0.2,0H9.8L9,3
					L9,3z M14.9,15.5h-4.9V7.8h4.9L14.9,15.5L14.9,15.5z M16.1,7.2h-0.9h-5.1V3.5c0.1,0,0.2,0,0.3,0h5.7L16.1,7.2L16.1,7.2z"/>
			</g>
		</g>
	</g>
	<g id="Group-40" transform="translate(117.000000, 15.000000)">
		<g id="Group-41">
			<circle id="Oval-2-Copy-3" class="st0" cx="18" cy="18" r="18"/>
			<path id="Path" class="st1" d="M29,19.2c0.7,0.9,0.4,2.2-0.6,2.7l-0.5,0.3c-0.4,0.2-0.6,0.7-0.5,1.1l0.1,0.6
				c0.2,1.1-0.6,2.1-1.7,2.2l-0.6,0c-0.5,0-0.8,0.3-1,0.8L24,27.4c-0.3,1.1-1.5,1.7-2.5,1.2L21,28.4c-0.4-0.2-0.9-0.1-1.2,0.3
				l-0.4,0.4c-0.7,0.8-2,0.9-2.8,0l-0.4-0.4c-0.3-0.3-0.8-0.4-1.2-0.3l-0.5,0.2c-1,0.4-2.2-0.1-2.5-1.2l-0.2-0.6
				c-0.1-0.4-0.5-0.7-1-0.8l-0.6,0c-1.1,0-1.9-1.1-1.8-2.2l0.1-0.6c0.1-0.4-0.1-0.9-0.5-1.1l-0.5-0.3c-1-0.5-1.3-1.8-0.6-2.7
				l0.3-0.5c0.3-0.4,0.3-0.9,0-1.2L7,17.2c-0.7-0.9-0.4-2.2,0.6-2.7l0.5-0.3c0.4-0.2,0.6-0.7,0.5-1.1l-0.1-0.6
				c-0.2-1.1,0.6-2.1,1.7-2.2l0.6,0c0.5,0,0.8-0.3,1-0.8L11.9,9c0.3-1.1,1.5-1.7,2.5-1.2L14.9,8c0.4,0.2,0.9,0.1,1.2-0.3l0.4-0.4
				c0.7-0.8,2-0.9,2.8,0l0.4,0.4c0.3,0.3,0.8,0.4,1.2,0.3l0.5-0.2c1-0.4,2.2,0.1,2.5,1.2l0.2,0.6c0.1,0.4,0.5,0.7,1,0.8l0.6,0
				c1.1,0,1.9,1.1,1.8,2.2l-0.1,0.6c-0.1,0.4,0.1,0.9,0.5,1.1l0.5,0.3c1,0.5,1.3,1.8,0.6,2.7l-0.3,0.5c-0.3,0.4-0.3,0.9,0,1.2
				L29,19.2z M28,19.2c-0.5-0.6-0.5-1.5,0-2.2l0.3-0.5c0.4-0.5,0.2-1.2-0.4-1.5l-0.5-0.3c-0.7-0.4-1.1-1.2-1-1.9l0.1-0.6
				c0.1-0.6-0.4-1.2-1-1.2L25,11c-0.8,0-1.5-0.6-1.7-1.3l-0.2-0.6c-0.2-0.6-0.8-0.9-1.4-0.7l-0.5,0.2C20.4,9,19.6,8.8,19,8.2
				l-0.4-0.4c-0.4-0.5-1.2-0.5-1.6,0l-0.4,0.4c-0.5,0.6-1.4,0.8-2.1,0.5l-0.5-0.2c-0.6-0.2-1.3,0.1-1.4,0.7l-0.2,0.6
				c-0.2,0.8-0.9,1.3-1.7,1.4l-0.6,0c-0.6,0-1.1,0.6-1,1.2l0.1,0.6c0.1,0.8-0.2,1.6-0.9,2l-0.5,0.3c-0.6,0.3-0.7,1-0.3,1.5l0.3,0.5
				c0.5,0.6,0.5,1.5,0,2.2l-0.3,0.5c-0.4,0.5-0.2,1.2,0.4,1.5l0.5,0.3c0.7,0.4,1.1,1.2,1,1.9l-0.1,0.6c-0.1,0.6,0.4,1.2,1,1.2l0.6,0
				c0.8,0,1.5,0.6,1.7,1.3l0.2,0.6c0.2,0.6,0.8,0.9,1.4,0.7l0.5-0.2c0.7-0.3,1.6-0.1,2.1,0.5l0.4,0.4c0.4,0.5,1.2,0.5,1.6,0l0.4-0.4
				c0.5-0.6,1.4-0.8,2.1-0.5l0.5,0.2c0.6,0.2,1.3-0.1,1.4-0.7l0.2-0.6c0.2-0.8,0.9-1.3,1.7-1.4l0.6,0c0.6,0,1.1-0.6,1-1.2l-0.1-0.6
				c-0.1-0.8,0.2-1.6,0.9-2l0.5-0.3c0.6-0.3,0.7-1,0.3-1.5L28,19.2z"/>
			<circle id="Oval-4" class="st1" cx="18" cy="18" r="7"/>
			<g id="Group-38" transform="translate(14.000000, 14.500000)">
				<path id="Path_1_" class="st3" d="M0.8,1.6c0,0.5,0.4,0.8,0.8,0.8c0.5,0,0.8-0.4,0.8-0.8S2.1,0.8,1.6,0.8S0.8,1.2,0.8,1.6z
					 M0,1.6C0,0.7,0.7,0,1.6,0s1.6,0.7,1.6,1.6S2.5,3.2,1.6,3.2S0,2.5,0,1.6z"/>
				<path id="Path_2_" class="st3" d="M2,7C1.9,7.2,1.5,7.2,1.3,7S1.1,6.5,1.3,6.3l5-6.1C6.4,0,6.8-0.1,7,0.1s0.2,0.5,0.1,0.7L2,7z"
					/>
				<path id="Path_3_" class="st3" d="M6.8,6.4c0.5,0,0.8-0.4,0.8-0.8S7.2,4.8,6.8,4.8S5.9,5.2,5.9,5.6S6.3,6.4,6.8,6.4z M6.8,7.2
					c-0.9,0-1.6-0.7-1.6-1.6S5.9,4,6.8,4s1.6,0.7,1.6,1.6S7.7,7.2,6.8,7.2z"/>
			</g>
		</g>
	</g>
</g>
</svg>
